<svg id="Layer_1" data-name="Layer 1" xmlns="http://www.w3.org/2000/svg" viewBox="0 0 50 50"><path d="M25,4.18h19.2A3.81,3.81,0,0,1,48.06,7.3a4.46,4.46,0,0,1,.06.82q0,12.41,0,24.82a13.12,13.12,0,0,1-25.47,4.19.72.72,0,0,0-.83-.56H6a3.83,3.83,0,0,1-4.08-4.06V8.22a3.83,3.83,0,0,1,4.05-4ZM23.49,32.69A11.5,11.5,0,1,0,35,21.2,11.47,11.47,0,0,0,23.49,32.69Zm23-6.53c0-2.56,0-5.13,0-7.69,0-.41-.26-.37-.52-.37H4c-.39,0-.53.1-.53.51,0,4.64,0,9.27,0,13.91A2.3,2.3,0,0,0,5.93,35H21.61c.33,0,.45,0,.4-.43a12.15,12.15,0,0,1,.07-4.21c1.07-5,4-8.55,8.92-10.12a12.67,12.67,0,0,1,13.1,3A17.54,17.54,0,0,1,46.52,26.16ZM25.05,11.94c-7,0-14,0-21,0-.45,0-.62.12-.6.59,0,1.09,0,2.18,0,3.27,0,.7,0,.7.71.7H46c.39,0,.54-.11.53-.52,0-1.12,0-2.24,0-3.36,0-.68,0-.68-.69-.68ZM25,10.33H45.06c.35,0,.71,0,1.06,0s.41-.1.4-.39c0-.63,0-1.25,0-1.88A2.26,2.26,0,0,0,44.9,5.91a4,4,0,0,0-1.1-.13H5.8A2.31,2.31,0,0,0,3.48,8.13c0,.43,0,.86,0,1.29,0,1-.12.91.88.91Z"/><path d="M35.05,33.29c.44-1.15.85-2.26,1.27-3.36a4.57,4.57,0,0,1,.32-.75.8.8,0,0,1,1.47.48,1.58,1.58,0,0,1-.09.42q-1.1,2.93-2.2,5.85a.87.87,0,0,1-.66.63c-.44.08-.78-.12-1-.65-.65-1.71-1.28-3.42-1.93-5.13-.1-.27-.21-.54-.29-.81a.84.84,0,0,1,.46-1.12.83.83,0,0,1,1.07.56c.45,1.16.89,2.33,1.33,3.5A.63.63,0,0,0,35.05,33.29Z"/><path d="M41.94,33.39c.47-1.24.88-2.35,1.3-3.45a6.69,6.69,0,0,1,.27-.67.81.81,0,0,1,1.52.52,1.5,1.5,0,0,1-.11.36Q43.87,33,42.81,35.78a1.12,1.12,0,0,0-.05.13.85.85,0,0,1-1.65,0l-1.38-3.69c-.29-.75-.58-1.49-.84-2.25a.82.82,0,0,1,.92-1.15.9.9,0,0,1,.64.65l1.29,3.42C41.79,33,41.84,33.13,41.94,33.39Z"/><path d="M25.73,32.68a4.5,4.5,0,0,1,.34-2.2,3.15,3.15,0,0,1,4.62-1.09,1.79,1.79,0,0,1,.25.22.83.83,0,0,1,.11,1.09.78.78,0,0,1-1.11.17,1.78,1.78,0,0,0-1.24-.42,1.41,1.41,0,0,0-1.31,1.27,5.65,5.65,0,0,0,0,2.05,1.45,1.45,0,0,0,2.21.94c.11-.06.21-.15.32-.21a.8.8,0,0,1,1.08.16.83.83,0,0,1-.1,1.13,3.14,3.14,0,0,1-4.09.06,3,3,0,0,1-1.11-2.4C25.74,33.19,25.73,32.94,25.73,32.68Z"/><path d="M13.43,32H9.58a3.11,3.11,0,0,1,0-6.22c2.6,0,5.19,0,7.79,0a3.11,3.11,0,0,1,0,6.22Zm0-1.61c1.24,0,2.47,0,3.7,0a1.51,1.51,0,0,0,1.55-2,1.59,1.59,0,0,0-1.6-1c-1.57,0-3.14,0-4.71,0-.9,0-1.79,0-2.69,0a1.49,1.49,0,0,0-1.49,2,1.6,1.6,0,0,0,1.59,1Z"/></svg>