<svg id="Layer_1" fill="#fff" data-name="Layer 1" xmlns="http://www.w3.org/2000/svg" viewBox="0 0 50 50"><path d="M23.12,48.1a3.08,3.08,0,0,1-1.69-1.34c-.09-.18-.22-.14-.38-.1a2.7,2.7,0,0,1-3.17-1.19.35.35,0,0,0-.44-.17,2.67,2.67,0,0,1-3.14-1.16.39.39,0,0,0-.52-.17,2.73,2.73,0,0,1-3.3-3.61c.22-.62.46-1.24.7-1.86.11-.27.05-.36-.25-.38a1,1,0,0,0-1.11.57A2,2,0,0,1,8,39.7c-1.32,0-2.64.07-4,0A2.28,2.28,0,0,1,1.92,37.4v-14a2.3,2.3,0,0,1,2.3-2.3c2.15,0,4.29,0,6.44,0a2,2,0,0,1,1.89,1.17.57.57,0,0,0,.59.36c.91,0,1.82,0,2.82,0a16.17,16.17,0,0,1-1.5-2A12.34,12.34,0,1,1,37.21,12.3a12.17,12.17,0,0,1-1.66,8.39c-.06.11-.21.23-.16.35s.27.08.41.09.36,0,.54,0a1.13,1.13,0,0,0,1.34-.65,1.74,1.74,0,0,1,1.63-.87c2.18,0,4.36,0,6.53,0a2.37,2.37,0,0,1,2.24,1.73v15a2.48,2.48,0,0,1-2.71,1.76c-1.14,0-2.28,0-3.42,0a1.82,1.82,0,0,1-1.73-1,1,1,0,0,0-1.14-.58,4.38,4.38,0,0,1-.81,0,2.51,2.51,0,0,0-1.93.51c-.19.16-.26.26-.22.5a2.66,2.66,0,0,1-1.39,2.95.43.43,0,0,0-.25.53,2.66,2.66,0,0,1-1.41,3,.44.44,0,0,0-.24.55,2.56,2.56,0,0,1-.17,1.59,2.67,2.67,0,0,1-3.52,1.44c-.81-.34-1.6-.76-2.39-1.15-.17-.08-.33-.17-.44.08a2.93,2.93,0,0,1-1.83,1.56Zm6.22-27h0c1.12,0,2.23,0,3.34,0a1,1,0,0,0,.9-.44A10.73,10.73,0,0,0,25.21,3.54a10.42,10.42,0,0,0-8.13,3.52A10.75,10.75,0,0,0,18,22.38a1.23,1.23,0,0,0,.82.29c1.29,0,2.58,0,3.87,0a1.13,1.13,0,0,0,.94-.42,3.22,3.22,0,0,1,2.63-1.13C27.3,21.15,28.32,21.13,29.34,21.13Zm-7.59,3.2h-.49c-2.69,0-5.38,0-8.06,0-.47,0-.62.17-.69.6-.2,1.26-.45,2.51-.67,3.76q-.69,3.72-1.36,7.44c-.06.32,0,.44.36.43s.69,0,1,0a.85.85,0,0,0,.53-.18,2.68,2.68,0,0,1,3.74.32.34.34,0,0,0,.49.07,2.68,2.68,0,0,1,3.66.94c.13.2.25.27.47.19a2.71,2.71,0,0,1,3.51,2.22c0,.3.15.41.48.44a2.71,2.71,0,0,1,2.59,2.33,2.9,2.9,0,0,1-.23,1.54c-.09.23-.08.39.18.51l2.39,1.16a1,1,0,0,0,.78.06,1,1,0,0,0,.74-.88,1.05,1.05,0,0,0-.59-1.16c-.63-.33-1.27-.61-1.9-.93S28,42.47,28.17,42s.69-.58,1.27-.31,1.16.58,1.75.84a1.12,1.12,0,0,0,1.57-.48,1.11,1.11,0,0,0-.64-1.52c-.62-.31-1.25-.59-1.87-.9s-.74-.7-.53-1.16.68-.57,1.24-.31l1.87.89a1.23,1.23,0,0,0,.82.15,1.09,1.09,0,0,0,.29-2.05c-.56-.29-1.13-.55-1.7-.83-.11,0-.22-.09-.33-.15a.82.82,0,0,1-.39-1.07.79.79,0,0,1,1.1-.38c.66.29,1.3.62,2,.91a1.1,1.1,0,1,0,1-2l-.32-.17-7.53-3.87c-1.2-.61-1.19-.6-2.18.31l-2.91,2.63a3.11,3.11,0,0,1-4.42-4.37c.52-.6,1.07-1.18,1.6-1.77Zm9.76-1.55h0c-1.78,0-3.57,0-5.36,0a1.56,1.56,0,0,0-1.24.51q-2.76,3-5.51,6.07A1.37,1.37,0,0,0,19,30.53a1.46,1.46,0,0,0,2.45.89c1.06-.91,2.08-1.86,3.12-2.8L27.47,26a.82.82,0,1,1,1.12,1.18,5.36,5.36,0,0,1-.43.4c-.24.19-.27.3.05.45.67.33,1.33.69,2,1l6.09,3.12a2.81,2.81,0,0,1,1.47,1.84c.09.31-.11.75.23.9a2.87,2.87,0,0,0,1,0h.13c.42,0,.5-.12.43-.53q-1-5.59-2-11.2c-.07-.35-.21-.5-.59-.49Zm15,6.12c0-2.21,0-4.41,0-6.62,0-.78-.25-1-1-1-1.94,0-3.87,0-5.81,0-.73,0-.86.17-.72.9Q40.21,29,41.44,35.84c.1.55.25.69.81.69h3.11c.9,0,1.15-.25,1.15-1.14C46.52,33.22,46.51,31.06,46.51,28.9ZM7.43,22.79H4.5c-.71,0-1,.25-1,1V37.1c0,.69.29,1,1,1H7.77c.57,0,.72-.13.82-.68.19-1.08.38-2.15.58-3.23l1.92-10.53c.12-.63-.05-.82-.69-.83ZM20.24,45.12a.93.93,0,0,0,1-.57c.49-1.25,1-2.51,1.42-3.79A1,1,0,0,0,22,39.49a1,1,0,0,0-1.37.53c-.5,1.24-1,2.49-1.41,3.75A1,1,0,0,0,20.24,45.12ZM16.6,43.77A1,1,0,0,0,17.7,43c.43-1.11.85-2.21,1.26-3.32a1.12,1.12,0,0,0-.59-1.5,1.1,1.1,0,0,0-1.45.7c-.21.48-.38,1-.57,1.46-.24.65-.51,1.29-.72,1.94A1.06,1.06,0,0,0,16.6,43.77ZM13,42.42a1,1,0,0,0,1-.63c.4-1,.78-1.94,1.12-2.93a1,1,0,0,0-.65-1.36,1,1,0,0,0-1.37.58c-.4,1-.78,1.92-1.1,2.9A1,1,0,0,0,13,42.42Zm10.82,4a1,1,0,0,0,1-.72c.27-.67.52-1.34.76-2a1.09,1.09,0,1,0-2-.8c-.29.7-.56,1.42-.8,2.14A1,1,0,0,0,23.83,46.47Z"/><path d="M32,10.42a2.34,2.34,0,0,1-.62,1.6L26,18l-1.35,1.51a2.39,2.39,0,0,1-3.76.13l-2.07-2.07a2.36,2.36,0,0,1-.1-3.39,2.4,2.4,0,0,1,3.43.07c.47.46.47.46.91,0l4.39-4.89a3.22,3.22,0,0,1,1.61-1.17A2.35,2.35,0,0,1,32,10.42ZM22.71,18.8c.31,0,.5-.18.7-.39,1.81-2,3.63-4,5.45-6.05.41-.46.82-.91,1.22-1.38a.73.73,0,0,0,0-1.08.75.75,0,0,0-1.05.09c-.12.12-.22.25-.33.37l-5.33,5.92a.87.87,0,0,1-1.47,0c-.31-.3-.61-.62-.92-.92s-.78-.42-1.1-.09a.77.77,0,0,0,.1,1.12l2.1,2.1A.79.79,0,0,0,22.71,18.8Z"/></svg>