<svg id="Layer_1" fill="#fff" data-name="Layer 1" xmlns="http://www.w3.org/2000/svg" viewBox="0 0 50 50"><path d="M34.26,1.27a5.27,5.27,0,0,1,2.48,1.54c3.44,3.47,6.91,6.92,10.37,10.39a4,4,0,0,1,0,6.16L37,29.41a2.62,2.62,0,0,0-.63,1L32.9,39.92a8.32,8.32,0,0,1-5.83,5.36c-2.09.59-4.19,1.19-6.29,1.76a2.16,2.16,0,0,0-1.12.67,9,9,0,0,1-.76.75,1,1,0,0,1-1.36-1.36c.46-.5.95-1,1.43-1.45a1.38,1.38,0,0,1,.62-.3l6.9-2a6.44,6.44,0,0,0,4.62-4.28c.7-1.94,1.43-3.88,2.19-5.92l-.36.32-3.63,3.63a4,4,0,0,1-5.94,0L23.24,37c-.45-.44-.45-.44-.92,0A1,1,0,1,1,21,35.55q2.89-2.91,5.8-5.8a1.84,1.84,0,0,0,.59-1.84,1.76,1.76,0,0,0-3-.8c-1.16,1.12-2.31,2.24-3.4,3.41a2.61,2.61,0,0,1-2.11.9,5.91,5.91,0,0,0-5.37,3A6.51,6.51,0,0,0,12.72,38a1.89,1.89,0,0,1-.62,1.47c-2.89,2.87-5.77,5.76-8.65,8.64a2,2,0,0,1-.57.47.93.93,0,0,1-1.14-.2.9.9,0,0,1-.13-1.14A3.29,3.29,0,0,1,2,46.78q4.19-4.19,8.36-8.35a1.27,1.27,0,0,0,.41-1,7.86,7.86,0,0,1,4.78-7.33c.51-.25.52-.24.12-.64-1.07-1.07-2.15-2.13-3.21-3.21a4,4,0,0,1,0-5.76c1.94-2,3.91-3.91,5.86-5.87l.27-.24a1,1,0,0,1,1.24.06.94.94,0,0,1,.17,1.19,2.8,2.8,0,0,1-.39.46L14,21.78A2.11,2.11,0,0,0,14,25l4,4a1.05,1.05,0,0,0,1.61,0C20.76,28,21.86,26.84,23,25.74a3.74,3.74,0,1,1,5.38,5.19q-1.9,2-3.87,3.87c-.31.3-.28.47,0,.77a2.34,2.34,0,0,0,2.3.87A2.51,2.51,0,0,0,28,35.7L41.53,22.17l4.26-4.26a2.11,2.11,0,0,0,0-3.29Q40.46,9.28,35.11,4a2.09,2.09,0,0,0-3.29,0l-5.7,5.69a4.75,4.75,0,0,1-.4.38,1,1,0,0,1-1.3-1.41c.19-.22.41-.42.61-.63,1.74-1.73,3.49-3.46,5.2-5.21a5.12,5.12,0,0,1,2.45-1.51Z"/><path d="M32.32,26.68a1,1,0,0,1-1-.52.87.87,0,0,1,.08-1,2.06,2.06,0,0,1,.28-.31q4.5-4.53,9-9a4.2,4.2,0,0,1,.55-.49,1,1,0,0,1,1.34,1.33,2.08,2.08,0,0,1-.27.32L33,26.26A1.08,1.08,0,0,1,32.32,26.68Z"/><path d="M37,11.27a3.35,3.35,0,1,1-3.36-3.36A3.39,3.39,0,0,1,37,11.27Zm-2,0A1.31,1.31,0,0,0,33.61,9.9a1.35,1.35,0,0,0-1.36,1.38,1.39,1.39,0,0,0,1.37,1.35A1.34,1.34,0,0,0,35,11.26Z"/><path d="M19,23.55A.89.89,0,0,1,18.1,23a1,1,0,0,1,.2-1.11l2.26-2.26c.26-.26.51-.53.79-.78a1,1,0,0,1,1.41,0,.93.93,0,0,1,0,1.37c-1,1-2,2.05-3.07,3.08A.92.92,0,0,1,19,23.55Z"/><path d="M22.14,11.26a1,1,0,0,1,1,1,1,1,0,0,1-1,1,1,1,0,0,1-1-1A1,1,0,0,1,22.14,11.26Z"/></svg>