<svg id="Layer_1" data-name="Layer 1" xmlns="http://www.w3.org/2000/svg" viewBox="0 0 50 50" fill="white"><path d="M25.5,9.65c.57,0,.88-.45.89-1.25,0-2.31,0-4.62,0-6.92a1.37,1.37,0,0,0-.5-1.19h0a.52.52,0,0,0-.77,0h0a1.36,1.36,0,0,0-.5,1.18c0,2.31,0,4.62,0,6.92C24.63,9.2,24.94,9.65,25.5,9.65Z"/><path d="M46.39,37.72a4.11,4.11,0,0,0-5.13-1.26c-1.95.89-3.89,1.82-5.83,2.76a.54.54,0,0,1-.82-.22,4.89,4.89,0,0,0-3.77-2.21c-1.65-.11-3.3-.19-4.95-.16a10.27,10.27,0,0,1-4.8-1.15,10.1,10.1,0,0,0-8.45-.33c-.89.35-.89.36-.89-.62,0-.78-.33-1.1-1.12-1.12l-1.73,0c-1.43,0-2.86-.1-4.28-.12-.68,0-1,.35-1,1,0,.47-.05.93-.06,1.39Q3.39,41.33,3.25,47h0v1c0,.76.31,1.08,1.08,1.1l1.88.06c1.39,0,2.79.09,4.18.11.59,0,1-.32,1-.84a.92.92,0,0,1,.69-1,2.46,2.46,0,0,0,.55-.3,3.45,3.45,0,0,1,3-.33c3.07.88,6.13,1.78,9.22,2.58a9.48,9.48,0,0,0,7.65-1.05c4.57-2.9,9.09-5.87,13.63-8.81C46.91,39,47,38.52,46.39,37.72ZM9.85,40.78c0,2-.13,4.07-.17,6.1,0,.46-.11.63-.59.61-1.23-.06-2.47-.08-3.7-.11-.29,0-.41-.12-.4-.4s0-.87,0-1.3H5c.09-3.42.19-6.83.28-10.25,0-.3.1-.43.42-.42l3.9.09c.31,0,.37.17.36.43C9.93,37.28,9.9,39,9.85,40.78Zm34.36-2.13-7.6,4.92c-1.67,1.08-3.34,2.17-5,3.24a7.8,7.8,0,0,1-5,1.1,35.9,35.9,0,0,1-5.69-1.43c-1.68-.43-3.35-.91-5-1.41a4.85,4.85,0,0,0-4,.43c-.46.26-.47.24-.47-.26v-1h0c.06-2.1.13-4.2.17-6.3,0-.39.25-.53.52-.68A8.72,8.72,0,0,1,20.34,37a10.91,10.91,0,0,0,3.28,1.21,15.83,15.83,0,0,0,1.68.13c1.7.06,3.4.09,5.11.13a3.5,3.5,0,0,1,3.19,2.24c.17.45.13.5-.34.48l-6-.18c-.67,0-1.34-.06-2-.07a.91.91,0,0,0-1,.84c0,.51.38.89,1,.91.94,0,1.89,0,2.84.08,2.15.08,4.3.11,6.45.16.66,0,1.09-.34,1-1s.28-1,.89-1.3C38.29,39.8,40.14,38.89,42,38a2.43,2.43,0,0,1,2.18,0C44.62,38.27,44.63,38.38,44.21,38.65Z"/><path d="M25.5,34.59A11.79,11.79,0,1,0,13.72,22.78,11.79,11.79,0,0,0,25.5,34.59Zm0-21.85A10.05,10.05,0,1,1,15.45,22.81,10,10,0,0,1,25.53,12.74Z"/><path d="M31.56,9.65c.51,0,.87-.4.89-1s0-1.09,0-1.63,0-1.13,0-1.69-.37-1-.88-1-.86.37-.87,1c0,1.1,0,2.21,0,3.31A.93.93,0,0,0,31.56,9.65Z"/><path d="M19.44,9.65c.5,0,.85-.4.87-1s0-1.12,0-1.68h0V5.37a.34.34,0,0,0,0-.1.89.89,0,0,0-.86-1,.87.87,0,0,0-.89,1c0,1.12,0,2.24,0,3.36A.91.91,0,0,0,19.44,9.65Z"/><path d="M25.49,19.19a1.43,1.43,0,0,0,1.44-1.42,1.42,1.42,0,0,0-.42-1,1.4,1.4,0,0,0-2,0,1.42,1.42,0,0,0-.42,1,1.38,1.38,0,0,0,.42,1A1.39,1.39,0,0,0,25.49,19.19Z"/><path d="M25.5,20.27a1.16,1.16,0,0,0-1.16,1.16v6.68a1.16,1.16,0,1,0,2.32,0V21.43A1.16,1.16,0,0,0,25.5,20.27Z"/></svg>