<svg width="104" height="30" viewBox="0 0 104 30" fill="none" xmlns="http://www.w3.org/2000/svg">
<g clip-path="url(#clip0_218_1935)">
<path d="M47.3764 26.8626C47.3764 28.5942 46.0369 30.0001 44.3844 30.0001H3.15388C1.50141 30.0001 0.161865 28.5933 0.161865 26.8626V3.52055C0.161865 1.78725 1.50141 0.383057 3.15388 0.383057H44.3844C46.0369 0.383057 47.3764 1.78725 47.3764 3.52055V26.8626Z" fill="white"/>
<path d="M19.7516 7.59585L15.3791 18.5354H12.5268L10.3748 9.80306C10.2443 9.26684 10.1313 9.06937 9.73391 8.84295C9.08547 8.47347 8.01367 8.12769 7.07239 7.91267L7.13514 7.59497H11.7277C12.3118 7.59497 12.8389 8.00307 12.9719 8.70955L14.1081 15.0416L16.9144 7.59585H19.7516ZM23.6079 7.59585L21.3765 18.5354H18.6782L20.9096 7.59585H23.6079ZM30.9282 14.9635C30.939 12.077 27.1221 11.9172 27.1472 10.6271C27.1564 10.2349 27.5128 9.81711 28.2918 9.71091C28.6775 9.65826 29.7451 9.61701 30.9533 10.2006L31.426 7.87932C30.7767 7.63271 29.9409 7.39575 28.9017 7.39575C26.2343 7.39575 24.3568 8.88156 24.3426 11.0115C24.325 12.5878 25.6829 13.4654 26.7037 13.9893C27.7563 14.5255 28.1085 14.8696 28.1035 15.3487C28.096 16.0824 27.2635 16.4072 26.4895 16.4203C25.1316 16.4423 24.3451 16.035 23.7176 15.7288L23.2289 18.1255C23.8598 18.4309 25.0236 18.6925 26.2285 18.7065C29.0649 18.7074 30.919 17.2374 30.9282 14.9635ZM37.9715 18.5354H40.4665L38.2869 7.59585H35.9851C35.4664 7.59585 35.0296 7.91179 34.8364 8.39712L30.7876 18.5354H33.6215L34.1829 16.9013H37.6451L37.9715 18.5354ZM34.9594 14.6598L36.3809 10.5508L37.1975 14.6598H34.9594ZM27.0618 21.5474H25.9657V22.6181H27.1915V22.9402H25.5959V19.9703H27.1288V20.2906H25.9657V21.2288H27.0618V21.5474ZM27.7579 19.8114H28.1269V22.9393H27.7579V19.8114ZM29.059 21.9432C29.0674 22.4689 29.3828 22.6848 29.756 22.6848C30.0204 22.6848 30.1852 22.6356 30.3191 22.5742L30.386 22.8498C30.2555 22.9112 30.0287 22.9867 29.7058 22.9867C29.0799 22.9867 28.7068 22.5514 28.7068 21.9081C28.7068 21.2648 29.0682 20.761 29.6597 20.761C30.3274 20.761 30.4998 21.3683 30.4998 21.7624C30.4998 21.8414 30.4956 21.8975 30.4864 21.9423H29.059V21.9432ZM30.1434 21.6659C30.1475 21.4245 30.0463 21.0401 29.6313 21.0401C29.2531 21.0401 29.0933 21.3964 29.064 21.6659H30.1434ZM32.5112 22.8647C32.4141 22.9138 32.1999 22.9893 31.9272 22.9893C31.3139 22.9893 30.9156 22.5522 30.9156 21.9011C30.9156 21.2446 31.3432 20.7645 32.0075 20.7645C32.2259 20.7645 32.4192 20.8207 32.5196 20.8777L32.4359 21.1744C32.3472 21.1244 32.2083 21.0726 32.0075 21.0726C31.5406 21.0726 31.2896 21.4385 31.2896 21.8791C31.2896 22.3732 31.5917 22.676 31.995 22.676C32.2041 22.676 32.3439 22.6242 32.4484 22.5759L32.5112 22.8647ZM33.5479 20.2959V20.8067H34.0766V21.1015H33.5479V22.253C33.5479 22.5163 33.619 22.6672 33.8248 22.6672C33.9252 22.6672 33.9846 22.6584 34.039 22.6418L34.0557 22.9375C33.9846 22.9621 33.8708 22.9902 33.7277 22.9902C33.5554 22.9902 33.4165 22.9287 33.3286 22.8261C33.2274 22.7067 33.1864 22.5163 33.1864 22.2661V21.1015H32.871V20.8067H33.1864V20.41L33.5479 20.2959ZM34.5929 21.4728C34.5929 21.2209 34.5879 21.0059 34.5762 20.8067H34.8991L34.9158 21.2288H34.9284C35.0213 20.9436 35.248 20.7619 35.4957 20.7619C35.5333 20.7619 35.5626 20.7672 35.5961 20.7707V21.1375C35.5584 21.127 35.5208 21.127 35.4697 21.127C35.2095 21.127 35.0255 21.3297 34.9744 21.6211C34.9661 21.6755 34.9619 21.7396 34.9619 21.8019V22.9393H34.5929V21.4728ZM37.8685 21.8563C37.8685 22.6435 37.3439 22.9875 36.8561 22.9875C36.3098 22.9875 35.8814 22.5645 35.8814 21.8905C35.8814 21.1805 36.3315 20.7628 36.8896 20.7628C37.4736 20.7628 37.8685 21.2077 37.8685 21.8563ZM36.2596 21.8774C36.2596 22.3443 36.5123 22.6979 36.8729 22.6979C37.2251 22.6979 37.4903 22.3504 37.4903 21.8703C37.4903 21.5096 37.318 21.0542 36.8812 21.0542C36.4495 21.0542 36.2596 21.478 36.2596 21.8774ZM38.435 21.3833C38.435 21.1586 38.4308 20.9839 38.4182 20.8075H38.7462L38.7671 21.1586H38.7755C38.8768 20.9602 39.1119 20.7628 39.4474 20.7628C39.7285 20.7628 40.1653 20.9392 40.1653 21.6711V22.9393H39.7963V21.7106C39.7963 21.3657 39.6741 21.0796 39.3252 21.0796C39.0859 21.0796 38.8968 21.2604 38.8299 21.4772C38.8132 21.5254 38.8048 21.5904 38.8048 21.6562V22.9393H38.4358L38.435 21.3833Z" fill="#1A1F71"/>
<path d="M102.56 26.6141C102.56 28.35 101.221 29.7542 99.5673 29.7542H58.3184C56.6643 29.7542 55.3247 28.3482 55.3247 26.6141V3.26498C55.3247 1.52992 56.6651 0.125732 58.3184 0.125732H99.5673C101.221 0.125732 102.56 1.5308 102.56 3.26498V26.6141Z" fill="white"/>
<path d="M69.1507 26.9423V25.3292C69.1507 24.7087 68.7926 24.3059 68.1768 24.3059C67.8689 24.3059 67.535 24.4139 67.3041 24.7631C67.125 24.4674 66.869 24.3059 66.4841 24.3059C66.2273 24.3059 65.9712 24.3866 65.7654 24.6833V24.3612H65.2274V26.9423H65.7654V25.5161C65.7654 25.0589 65.9972 24.8439 66.3561 24.8439C66.7151 24.8439 66.895 25.0852 66.895 25.5161V26.9423H67.4338V25.5161C67.4338 25.0589 67.6906 24.8439 68.0237 24.8439C68.3834 24.8439 68.5625 25.0852 68.5625 25.5161V26.9423H69.1507V26.9423ZM77.1252 24.3603H76.2534V23.5801H75.7145V24.3603H75.2267V24.8702H75.7145V26.055C75.7145 26.6474 75.9446 26.9949 76.5604 26.9949C76.7905 26.9949 77.0482 26.9142 77.2264 26.8071L77.0733 26.3227C76.9185 26.4289 76.7395 26.4561 76.6115 26.4561C76.3546 26.4561 76.2525 26.2955 76.2525 26.026V24.8702H77.1244L77.1252 24.3603ZM81.6894 24.3059C81.3815 24.3059 81.1773 24.4683 81.0493 24.6833V24.3612H80.5096V26.9423H81.0493V25.4907C81.0493 25.0598 81.2283 24.8167 81.5613 24.8167C81.6643 24.8167 81.7923 24.8448 81.8943 24.872L82.0483 24.334C81.9462 24.3059 81.7923 24.3059 81.6894 24.3059ZM74.7917 24.5745C74.5356 24.3858 74.1767 24.305 73.7918 24.305C73.1768 24.305 72.7669 24.6271 72.7669 25.137C72.7669 25.5679 73.0748 25.8101 73.6128 25.89L73.8688 25.9172C74.1508 25.9716 74.3047 26.0506 74.3047 26.1849C74.3047 26.3745 74.0997 26.5087 73.7408 26.5087C73.3818 26.5087 73.099 26.3745 72.92 26.2393L72.6639 26.6693C72.9451 26.8844 73.3308 26.9914 73.7148 26.9914C74.4327 26.9914 74.8435 26.6439 74.8435 26.1586C74.8435 25.7013 74.5097 25.4609 73.9968 25.3784L73.7408 25.3511C73.5107 25.3257 73.3308 25.2713 73.3308 25.1098C73.3308 24.9211 73.5107 24.8132 73.7918 24.8132C74.0997 24.8132 74.4076 24.9474 74.5607 25.0299L74.7917 24.5745ZM89.0999 24.3059C88.792 24.3059 88.587 24.4683 88.4599 24.6833V24.3612H87.921V26.9423H88.4599V25.4907C88.4599 25.0598 88.6381 24.8167 88.9719 24.8167C89.074 24.8167 89.202 24.8448 89.3041 24.872L89.4597 24.334C89.356 24.3059 89.202 24.3059 89.0999 24.3059ZM82.2274 25.6504C82.2274 26.4297 82.7402 26.9941 83.5359 26.9941C83.8949 26.9941 84.1509 26.9124 84.4061 26.6992L84.1509 26.2411C83.9451 26.4043 83.7409 26.4842 83.5092 26.4842C83.0732 26.4842 82.7662 26.1603 82.7662 25.6504C82.7662 25.1651 83.0741 24.8439 83.5092 24.8167C83.7401 24.8167 83.9459 24.8974 84.1509 25.058L84.4061 24.6017C84.1509 24.384 83.8949 24.3033 83.5359 24.3033C82.7419 24.3059 82.2274 24.8702 82.2274 25.6504ZM87.2023 25.6504V24.3586H86.6635V24.6806C86.4844 24.4393 86.2276 24.3033 85.8954 24.3033C85.2026 24.3033 84.6646 24.8676 84.6646 25.6487C84.6646 26.4271 85.2018 26.9923 85.8954 26.9923C86.2544 26.9923 86.5095 26.858 86.6635 26.6149V26.9388H87.2023V25.6504ZM85.2286 25.6504C85.2286 25.1923 85.5114 24.8167 85.9715 24.8167C86.4075 24.8167 86.7154 25.1651 86.7154 25.6504C86.7154 26.1077 86.4075 26.4842 85.9715 26.4842C85.5114 26.457 85.2286 26.1068 85.2286 25.6504ZM78.7927 24.3059C78.0748 24.3059 77.5619 24.8439 77.5619 25.6504C77.5619 26.457 78.0748 26.9949 78.8187 26.9949C79.1776 26.9949 79.5365 26.8879 79.8185 26.6456L79.5616 26.2428C79.3567 26.4043 79.0998 26.5122 78.8438 26.5122C78.5099 26.5122 78.1769 26.3508 78.0991 25.8944H79.9206V25.6803C79.9457 24.8439 79.4838 24.3059 78.7927 24.3059ZM78.7927 24.7904C79.1257 24.7904 79.3567 25.0045 79.4085 25.4073H78.1259C78.1778 25.0589 78.4078 24.7904 78.7927 24.7904ZM92.1505 25.6504V23.3379H91.6134V24.6806C91.4335 24.4402 91.1766 24.305 90.8436 24.305C90.1508 24.305 89.6128 24.8693 89.6128 25.6495C89.6128 26.4289 90.1508 26.9932 90.8436 26.9932C91.2017 26.9932 91.4586 26.8589 91.6134 26.6167V26.9405H92.1505V25.6504ZM90.1768 25.6504C90.1768 25.1923 90.4587 24.8167 90.9206 24.8167C91.3565 24.8167 91.6644 25.1651 91.6644 25.6504C91.6644 26.1077 91.3557 26.4842 90.9206 26.4842C90.4587 26.457 90.1768 26.1068 90.1768 25.6504ZM72.177 25.6504V24.3586H71.6382V24.6806C71.4591 24.4393 71.2022 24.3033 70.8701 24.3033C70.1781 24.3033 69.6393 24.8676 69.6393 25.6487C69.6393 26.4271 70.1781 26.9923 70.8701 26.9923C71.2282 26.9923 71.485 26.858 71.6382 26.6149V26.9388H72.177V25.6504ZM70.1773 25.6504C70.1773 25.1923 70.4584 24.8167 70.9203 24.8167C71.3562 24.8167 71.6641 25.1651 71.6641 25.6504C71.6641 26.1077 71.3562 26.4842 70.9203 26.4842C70.4593 26.457 70.1773 26.1068 70.1773 25.6504Z" fill="#202020"/>
<path d="M82.6902 4.75684H74.6136V19.9792H82.6902V4.75684Z" fill="#FF5F00"/>
<path d="M75.1257 12.3648C75.1257 9.27203 76.5104 6.52859 78.639 4.75404C77.0744 3.46307 75.1006 2.68286 72.9461 2.68286C67.8439 2.68286 63.7157 7.01304 63.7157 12.3648C63.7157 17.7165 67.8439 22.0467 72.9461 22.0467C75.1006 22.0467 77.0744 21.2665 78.639 19.9764C76.5104 18.2273 75.1257 15.4575 75.1257 12.3648Z" fill="#EB001B"/>
<path d="M93.5871 12.3639C93.5871 17.7156 89.4588 22.0458 84.3558 22.0458C82.2014 22.0458 80.2284 21.2656 78.6638 19.9755C80.8175 18.2018 82.1771 15.4575 82.1771 12.3648C82.1771 9.27203 80.7924 6.52859 78.6638 4.75404C80.2284 3.46307 82.2014 2.68286 84.3558 2.68286C89.4597 2.68198 93.5871 7.03849 93.5871 12.3639Z" fill="#F79E1B"/>
</g>
<defs>
<clipPath id="clip0_218_1935">
<rect width="104" height="30" fill="white"/>
</clipPath>
</defs>
</svg>
